# xmcd
#
# Track frame offsets: 
#        150
#        15182
#        35920
#        55065
#        78918
#        94540
#        113894
#        139038
#        165291
#        187575
#        206745
#
# Disc length: 2942 seconds
#
# Revision: 0
# Processed by: cddbd v1.5.2PL0 Copyright (c) Steve Scherf et al.
# Submitted via: ExactAudioCopyFreeDBPlugin 1.0
#
DISCID=7b0b7c0b
DTITLE=Peter Rowan - My Aloha!
DYEAR=2017
DGENRE=Bluegrass
TTITLE0=My Blue Hula Girl
TTITLE1=Jerry in the Deep Blue Sea
TTITLE2=Sunny at Sunrise
TTITLE3=Lotus Flower
TTITLE4=My Aloha (Appalachian Mountain Home)
TTITLE5=Tsuki-Chan
TTITLE6=The Waltz of Waikiki
TTITLE7=Man of Time and Tides
TTITLE8=Two Ships in the Night
TTITLE9=Uncle Jimmy
TTITLE10=Sunny at Sunrise (Reprise)
EXTD=
EXTT0=
EXTT1=
EXTT2=
EXTT3=
EXTT4=
EXTT5=
EXTT6=
EXTT7=
EXTT8=
EXTT9=
EXTT10=
PLAYORDER=
